<svg width="130" height="131" viewBox="0 0 130 131" fill="none" xmlns="http://www.w3.org/2000/svg">
<path d="M61.071 119.096L59.3758 130.491L49.8803 129.078C49.5321 129.026 49.2281 128.895 48.9684 128.684C48.6981 128.471 48.5005 128.204 48.3757 127.884C48.2492 127.574 48.2119 127.245 48.2637 126.897L49.3939 119.3C49.4457 118.952 49.578 118.643 49.7907 118.373C50.0019 118.113 50.2678 117.92 50.5883 117.796C50.8983 117.669 51.2274 117.632 51.5755 117.684L61.071 119.096ZM58.9812 120.096L51.3848 118.966C51.216 118.94 51.0649 118.977 50.9316 119.076C50.7862 119.184 50.7009 119.322 50.6758 119.491L49.5456 127.087C49.5205 127.256 49.5626 127.408 49.6719 127.543C49.7692 127.687 49.9022 127.771 50.071 127.796L57.6674 128.927C57.8362 128.952 57.9933 128.91 58.1388 128.803C58.2721 128.704 58.3513 128.57 58.3764 128.401L59.5066 120.805C59.5317 120.636 59.4956 120.48 59.3984 120.336C59.2891 120.201 59.15 120.121 58.9812 120.096ZM48.8165 117.213L46.1705 126.108L44.9129 125.733L47.559 116.839L48.8165 117.213ZM45.6778 127.764L45.3037 129.021L44.0461 128.647L44.4202 127.39L45.6778 127.764ZM46.329 112.429L45.8045 113.649L40.4834 111.361C40.3266 111.294 40.169 111.296 40.0107 111.367C39.8467 111.424 39.731 111.531 39.6636 111.688L38.9875 113.261L44.6761 115.707C44.9994 115.846 45.2646 116.053 45.4716 116.327C45.6646 116.608 45.7875 116.916 45.8403 117.252C45.8791 117.594 45.8291 117.927 45.69 118.25L43.5541 123.218C43.4151 123.542 43.2103 123.802 42.9398 123.999C42.6552 124.202 42.3469 124.325 42.0149 124.368C41.6689 124.416 41.3342 124.371 41.0109 124.232L35.8955 122.033C35.5624 121.89 35.2993 121.678 35.1063 121.398C34.8993 121.123 34.7764 120.815 34.7376 120.473C34.6946 120.141 34.7426 119.813 34.8816 119.49L38.4583 111.17C38.6015 110.837 38.8084 110.572 39.079 110.375C39.3537 110.168 39.662 110.045 40.0038 110.006C40.34 109.953 40.6747 109.998 41.0079 110.141L46.329 112.429ZM44.1579 116.912L39.0426 114.713C38.8858 114.645 38.7303 114.643 38.5762 114.704C38.408 114.771 38.2902 114.883 38.2228 115.04L36.0869 120.008C36.0195 120.165 36.0214 120.322 36.0927 120.481C36.1499 120.645 36.2569 120.76 36.4137 120.828L41.529 123.027C41.6858 123.094 41.8483 123.094 42.0165 123.027C42.1706 122.966 42.2814 122.857 42.3488 122.7L44.4847 117.732C44.5521 117.575 44.5572 117.415 44.4999 117.251C44.4287 117.092 44.3147 116.979 44.1579 116.912ZM36.9512 112.322L32.2681 120.334L31.1354 119.672L35.8186 111.66L36.9512 112.322ZM31.3961 121.825L30.734 122.958L29.6013 122.296L30.2634 121.163L31.3961 121.825ZM32.9071 109.719C33.2044 109.927 33.4266 110.186 33.5736 110.497C33.7058 110.811 33.7594 111.135 33.7343 111.468C33.7032 111.811 33.5868 112.127 33.3851 112.415L27.4373 120.927L26.3619 120.175L28.1031 117.683L24.8112 115.383L25.5627 114.308L28.8546 116.608L32.3097 111.664C32.4074 111.524 32.4449 111.368 32.422 111.196C32.3843 111.026 32.2955 110.892 32.1556 110.795L29.3752 108.852L30.1267 107.776L32.9071 109.719ZM28.4375 106.185C28.6942 106.425 28.873 106.71 28.974 107.039C29.0599 107.368 29.0704 107.7 29.0055 108.034C28.9255 108.369 28.7651 108.664 28.5242 108.921L26.2248 111.371L20.2983 105.809L18.8967 107.302C18.7799 107.426 18.728 107.575 18.7411 107.748C18.739 107.922 18.8002 108.067 18.9247 108.184L24.3962 113.319L23.4983 114.276L18.0268 109.141C17.7623 108.892 17.5872 108.604 17.5013 108.274C17.4003 107.945 17.3898 107.614 17.4697 107.279C17.5346 106.945 17.6875 106.65 17.9284 106.393L22.9543 101.038L28.4375 106.185ZM27.5396 107.141L23.0247 102.904L21.1961 104.852L26.166 109.516L27.5676 108.023C27.6844 107.899 27.7438 107.75 27.7458 107.576C27.7328 107.403 27.6641 107.258 27.5396 107.141ZM21.2344 98.9997C21.4578 99.2717 21.5983 99.5773 21.656 99.9164C21.6986 100.254 21.6662 100.584 21.5587 100.907C21.4362 101.229 21.2389 101.501 20.9669 101.725L12.942 108.315L12.1094 107.301L20.1342 100.711C20.2661 100.602 20.3443 100.462 20.3688 100.29C20.3782 100.117 20.3288 99.9642 20.2205 99.8323L19.2253 98.6206L20.2393 97.7879L21.2344 98.9997ZM17.7272 94.086L7.46068 99.2764L3.12935 90.709C2.97054 90.3949 2.90707 90.0684 2.93896 89.7295C2.95652 89.386 3.05531 89.0731 3.23532 88.7909C3.41534 88.5086 3.66242 88.2881 3.97656 88.1293L6.98941 86.6061C7.30355 86.4473 7.62763 86.379 7.96165 86.4014C8.29567 86.4238 8.61097 86.5273 8.90755 86.7121C9.1898 86.8921 9.41033 87.1392 9.56915 87.4533L13.3157 94.8641L17.1425 92.9294L17.7272 94.086ZM11.8633 94.8991L8.39828 88.0452C8.32128 87.8929 8.20395 87.7909 8.0463 87.7391C7.88384 87.6778 7.72645 87.6857 7.57414 87.7627L4.56129 89.2859C4.40898 89.3629 4.30934 89.4849 4.26238 89.6521C4.20109 89.8146 4.20894 89.972 4.28595 90.1243L7.75101 96.9782C7.82801 97.1305 7.9525 97.2349 8.12449 97.2913C8.28214 97.3431 8.43712 97.3305 8.58942 97.2535L11.6023 95.7303C11.7546 95.6533 11.8566 95.536 11.9084 95.3783C11.9554 95.2112 11.9403 95.0514 11.8633 94.8991ZM12.5684 83.7562L5.53574 85.8717C5.19866 85.9731 4.86764 85.9836 4.54268 85.9031C4.20444 85.8155 3.91212 85.6584 3.66573 85.4318C3.40605 85.198 3.22551 84.9126 3.12411 84.5755L1.62157 79.5806L2.87796 79.2027L4.3805 84.1976C4.42966 84.361 4.53396 84.4856 4.69341 84.5713C4.83957 84.6498 4.99436 84.6645 5.1578 84.6154L12.1905 82.4998L12.5684 83.7562ZM10.2831 74.8922C10.3295 75.2411 10.2878 75.5748 10.158 75.8934C10.0162 76.2028 9.81446 76.4663 9.55287 76.684C9.27929 76.8926 8.96804 77.02 8.61911 77.0664L3.25827 77.779C2.90934 77.8254 2.58089 77.783 2.27291 77.6518C1.95295 77.5114 1.68941 77.3097 1.48228 77.0467C1.26317 76.7745 1.13042 76.464 1.08404 76.115L0.350319 70.5956C0.302529 70.2361 0.349535 69.9016 0.491336 69.5923C0.621157 69.2737 0.822855 69.0102 1.09643 68.8016C1.35802 68.5839 1.66328 68.4519 2.01221 68.4055L5.34291 67.9627L6.41608 76.0357L8.44622 75.7658C8.6154 75.7434 8.7557 75.6655 8.86713 75.5323C8.96657 75.39 9.00505 75.2342 8.98256 75.0651L7.99161 67.6106L9.29217 67.4378L10.2831 74.8922ZM5.11552 76.2086L4.21735 69.452L2.18721 69.7219C2.01803 69.7444 1.88372 69.8268 1.78428 69.9692C1.67286 70.1024 1.62839 70.2535 1.65088 70.4227L2.3846 75.9422C2.40709 76.1113 2.49021 76.2509 2.63396 76.3609C2.76573 76.4618 2.91621 76.501 3.08538 76.4785L5.11552 76.2086ZM9.36309 64.9942C9.34598 65.3458 9.24494 65.6666 9.05996 65.9566C8.86485 66.2355 8.61905 66.4584 8.32258 66.6256C8.01597 66.7815 7.68688 66.8509 7.33529 66.8338L7.20745 66.8276L7.2712 65.5172L7.39905 65.5234C7.56952 65.5317 7.72152 65.4803 7.85508 65.3694C7.97849 65.2472 8.04434 65.1009 8.05264 64.9305L8.32322 59.369C8.33151 59.1986 8.27991 59.0519 8.16842 58.929C8.04679 58.7949 7.90074 58.7237 7.73028 58.7154L6.30796 58.6462C6.1375 58.6379 5.99056 58.6949 5.86714 58.817C5.73359 58.928 5.66267 59.0687 5.65438 59.2392L5.3838 64.8006C5.36669 65.1522 5.26565 65.473 5.08067 65.763C4.88555 66.0419 4.63976 66.2648 4.34329 66.432C4.03668 66.5879 3.70759 66.6573 3.356 66.6402L1.93368 66.571C1.5821 66.5539 1.26662 66.4531 0.987258 66.2687C0.697756 66.0731 0.474771 65.8273 0.318301 65.5313C0.151696 65.2242 0.0769461 64.8948 0.0940518 64.5432L0.364632 58.9818C0.382256 58.6196 0.488625 58.299 0.68374 58.0202C0.868719 57.7302 1.11451 57.5072 1.42112 57.3512C1.71759 57.1841 2.04162 57.1091 2.3932 57.1262L2.52105 57.1324L2.45652 58.4589L2.32867 58.4526C2.1582 58.4443 2.01126 58.5013 1.88785 58.6234C1.7543 58.7344 1.68338 58.8751 1.67508 59.0456L1.4045 64.607C1.39621 64.7775 1.45288 64.9297 1.5745 65.0638C1.686 65.1867 1.82698 65.2523 1.99744 65.2606L3.41976 65.3298C3.59022 65.3381 3.74223 65.2867 3.87578 65.1758C3.9992 65.0536 4.06505 64.9073 4.07335 64.7368L4.34393 59.1754C4.36155 58.8132 4.46792 58.4926 4.66303 58.2138C4.84801 57.9238 5.09381 57.7008 5.40041 57.5448C5.69688 57.3777 6.02091 57.3027 6.3725 57.3198L7.79481 57.389C8.1464 57.4061 8.46694 57.5125 8.75644 57.7081C9.03581 57.8926 9.25879 58.1384 9.4254 58.4455C9.58187 58.7415 9.65129 59.0705 9.63367 59.4328L9.36309 64.9942ZM10.2353 55.3431C10.155 55.6858 9.99772 55.9831 9.76342 56.235C9.52117 56.474 9.23915 56.649 8.91738 56.7598C8.58766 56.8579 8.25143 56.8667 7.90872 56.7864L2.64332 55.5527C2.3006 55.4724 2.0085 55.3163 1.76703 55.0845C1.51761 54.8398 1.34266 54.5578 1.24219 54.2384C1.13378 53.9063 1.11972 53.5688 1.20002 53.2261L2.47022 47.8049C2.55296 47.4518 2.71545 47.1558 2.9577 46.9167C3.192 46.6649 3.47401 46.4899 3.80374 46.3919C4.12551 46.281 4.45776 46.2658 4.80048 46.3461L8.07188 47.1126L6.21402 55.0418L8.20802 55.509C8.37418 55.548 8.53296 55.5249 8.68435 55.4399C8.82779 55.342 8.91898 55.21 8.95791 55.0438L10.6734 47.7221L11.9508 48.0214L10.2353 55.3431ZM4.93662 54.7425L6.49152 48.1062L4.49753 47.639C4.33136 47.6001 4.17656 47.6296 4.03312 47.7274C3.88172 47.8125 3.78656 47.9381 3.74763 48.1042L2.47742 53.5254C2.43849 53.6916 2.46673 53.8516 2.56216 54.0054C2.64963 54.1464 2.77645 54.2364 2.94262 54.2753L4.93662 54.7425ZM12.1451 47.4599L3.64498 43.7363L6.66245 36.8482C6.80369 36.5258 7.01514 36.2691 7.2968 36.078C7.57296 35.8729 7.88207 35.7522 8.22412 35.7157C8.56068 35.6651 8.89017 35.7105 9.21259 35.8517L15.9394 38.7986L15.413 40.0003L8.68614 37.0535C8.52981 36.985 8.37223 36.9858 8.2134 37.056C8.04908 37.1121 7.93267 37.2183 7.86419 37.3747L5.62999 42.4748C5.5615 42.6311 5.5602 42.7935 5.62609 42.9622C5.6822 43.1265 5.78842 43.2429 5.94474 43.3114L12.6716 46.2582L12.1451 47.4599ZM17.1747 36.9781C16.9778 37.2699 16.7251 37.4918 16.4165 37.6439C16.1051 37.7811 15.7793 37.8444 15.4392 37.8335C15.0961 37.8079 14.7787 37.6966 14.487 37.4997L10.0044 34.4742C9.71269 34.2773 9.49519 34.0276 9.35195 33.725C9.20584 33.4076 9.14262 33.0818 9.16228 32.7476C9.17907 32.3986 9.28592 32.0782 9.48285 31.7865L13.672 25.5799L14.7594 26.3139L10.5703 32.5205C10.4748 32.6619 10.4443 32.8215 10.4788 32.9992C10.5104 33.1621 10.597 33.2913 10.7384 33.3868L15.221 36.4122C15.3624 36.5077 15.519 36.5426 15.6907 36.517C15.8596 36.4765 15.9918 36.3856 16.0873 36.2441L20.2943 30.011L21.3818 30.745L17.1747 36.9781ZM22.8899 29.229C22.6436 29.4804 22.355 29.6531 22.024 29.7471C21.693 29.8259 21.3611 29.8293 21.0285 29.7574C20.6957 29.6703 20.4036 29.5036 20.1521 29.2573L16.2887 25.473C16.0373 25.2267 15.8684 24.9418 15.782 24.6184C15.6956 24.2798 15.6921 23.948 15.7718 23.6228C15.8512 23.2826 16.0141 22.9867 16.2604 22.7352L20.1566 18.7576C20.4104 18.4985 20.7028 18.3295 21.0339 18.2506C21.3648 18.1567 21.6967 18.1533 22.0295 18.2403C22.3621 18.3123 22.6541 18.4715 22.9056 18.7178L25.3059 21.069L19.6071 26.8869L21.0702 28.32C21.1921 28.4394 21.3398 28.502 21.5134 28.5078C21.6868 28.4984 21.8332 28.4328 21.9526 28.3109L27.2148 22.9387L28.152 23.8568L22.8899 29.229ZM18.6699 25.9688L23.4394 21.0996L21.9763 19.6665C21.8544 19.5471 21.7067 19.492 21.5334 19.5014C21.3598 19.4956 21.2133 19.5537 21.0939 19.6756L17.1977 23.6533C17.0782 23.7752 17.0195 23.9267 17.0213 24.1077C17.0231 24.2736 17.0849 24.4163 17.2068 24.5357L18.6699 25.9688ZM35.9542 18.5L33.7185 14.7848L25.4766 11.3601L26.7516 10.5929L33.4804 13.1168L34.3602 6.01425L35.6625 5.23052L34.829 14.1166L37.0646 17.8318L35.9542 18.5ZM42.0008 15.3356C41.6711 15.4589 41.3365 15.4928 40.9969 15.4375C40.6637 15.3685 40.3617 15.2308 40.091 15.0245C39.8266 14.8045 39.6328 14.5297 39.5096 14.1999L37.6163 9.13415C37.4931 8.80443 37.461 8.47481 37.52 8.14528C37.5853 7.80203 37.723 7.50006 37.933 7.23937C38.1493 6.96496 38.4223 6.76613 38.752 6.6429L43.9677 4.69363C44.3074 4.56667 44.6439 4.5377 44.9771 4.60674C45.3166 4.66204 45.6186 4.79971 45.883 5.01973C46.1537 5.22602 46.3507 5.49403 46.4739 5.82375L48.3672 10.8895C48.4904 11.2192 48.5194 11.5557 48.4541 11.899C48.395 12.2285 48.2574 12.5305 48.0411 12.8049C47.831 13.0656 47.5562 13.2594 47.2165 13.3864L42.0008 15.3356ZM41.5415 14.1067L46.7571 12.1574C46.917 12.0977 47.0314 11.9923 47.1002 11.8413C47.1753 11.6766 47.1829 11.5143 47.1232 11.3544L45.2299 6.28867C45.1702 6.1288 45.0598 6.01632 44.8989 5.95122C44.7441 5.8724 44.5868 5.86286 44.427 5.92261L39.2113 7.87188C39.0515 7.93163 38.934 8.04385 38.8589 8.20857C38.7901 8.35955 38.7855 8.51498 38.8453 8.67484L40.7385 13.7406C40.7983 13.9005 40.9055 14.0198 41.0602 14.0986C41.2212 14.1637 41.3816 14.1664 41.5415 14.1067ZM51.1685 12.345C50.8219 12.4066 50.4867 12.3796 50.1627 12.2639C49.8474 12.1358 49.5753 11.9459 49.3463 11.6941C49.1259 11.43 48.9849 11.1246 48.9233 10.7781L47.6368 3.54761L48.9285 3.31778L50.215 10.5482C50.2449 10.7163 50.3288 10.853 50.4667 10.9585C50.6133 11.0516 50.7706 11.0832 50.9386 11.0533L56.4205 10.0779C56.5886 10.048 56.7253 9.96407 56.8308 9.82612C56.9344 9.67768 56.9712 9.51944 56.9413 9.35142L55.6548 2.12098L56.9465 1.89114L58.233 9.12159C58.2947 9.46814 58.2624 9.80433 58.1362 10.1301C58.0186 10.4436 57.8287 10.7157 57.5664 10.9466C57.3128 11.1651 57.0074 11.3061 56.6504 11.3696L51.1685 12.345ZM59.2896 10.9601L59.1567 3.61729C59.1503 3.26535 59.2299 2.94386 59.3953 2.65281C59.5712 2.35091 59.8016 2.11204 60.0864 1.93619C60.3818 1.74948 60.7054 1.65294 61.0573 1.64656L66.2725 1.55215L66.2962 2.86393L61.0811 2.95835C60.9104 2.96144 60.7623 3.02813 60.6366 3.15843C60.5214 3.27787 60.4654 3.4229 60.4685 3.59354L60.6014 10.9363L59.2896 10.9601ZM70.4569 11.2874L73.1262 0.0809437L81.9824 2.1904C82.3249 2.27196 82.6164 2.42912 82.857 2.66187C83.108 2.8971 83.2819 3.17975 83.3787 3.50983C83.478 3.82954 83.4869 4.16061 83.4053 4.50303L82.8381 6.88441C82.8035 7.02967 82.7481 7.17 82.672 7.30538C82.6088 7.43286 82.5312 7.55145 82.4393 7.66113C82.586 8.05793 82.6868 8.39443 82.7416 8.67065C82.7964 8.94687 82.7929 9.21469 82.7311 9.4741L82.1083 12.0889C82.0267 12.4314 81.8684 12.7281 81.6331 12.9791C81.4004 13.2197 81.119 13.3884 80.7889 13.4852C80.4692 13.5845 80.1381 13.5934 79.7957 13.5118L70.4569 11.2874ZM72.625 10.4716L80.096 12.2511C80.262 12.2906 80.4157 12.2669 80.557 12.18C80.7112 12.0851 80.808 11.9547 80.8476 11.7887L81.4704 9.17381C81.5099 9.00778 81.4811 8.85287 81.3837 8.70908C81.2992 8.55737 81.174 8.46175 81.008 8.4222L73.537 6.6427C73.371 6.60315 73.2109 6.63081 73.0567 6.72567C72.9154 6.81262 72.8249 6.93911 72.7854 7.10513L72.1625 9.71998C72.123 9.886 72.1455 10.0449 72.23 10.1966C72.3273 10.3404 72.459 10.432 72.625 10.4716ZM73.8373 5.38197L80.8258 7.04655C80.9918 7.08609 81.1455 7.06239 81.2868 6.97543C81.4306 6.8781 81.5223 6.74643 81.5618 6.58041L82.129 4.19903C82.1686 4.033 82.1449 3.87933 82.0579 3.738C81.9734 3.5863 81.8482 3.49068 81.6821 3.45113L74.6937 1.78655C74.5276 1.74701 74.3675 1.77466 74.2134 1.86952C74.072 1.95647 73.9816 2.08296 73.9421 2.24898L73.3748 4.63036C73.3353 4.79639 73.3578 4.95525 73.4422 5.10695C73.5396 5.25075 73.6712 5.34242 73.8373 5.38197ZM83.8688 14.9404C83.5502 14.7909 83.2919 14.5755 83.094 14.2941C82.9103 14.0076 82.7976 13.6955 82.7558 13.3577C82.7281 13.0148 82.7891 12.6841 82.9386 12.3654L86.0583 5.71696L87.246 6.27429L84.1263 12.9227C84.0538 13.0772 84.0435 13.2374 84.0954 13.4031C84.1614 13.5637 84.2717 13.6802 84.4262 13.7527L89.4668 16.118C89.6213 16.1905 89.7814 16.2008 89.9472 16.1489C90.1174 16.0874 90.2388 15.9794 90.3113 15.8249L93.431 9.17649L94.6187 9.73383L91.499 16.3823C91.3495 16.7009 91.1292 16.9569 90.8382 17.1503C90.5613 17.3385 90.2492 17.4513 89.9018 17.4886C89.5686 17.5207 89.2378 17.4598 88.9095 17.3057L83.8688 14.9404ZM92.4925 19.4216C92.206 19.217 91.9909 18.9585 91.847 18.646C91.7181 18.3311 91.6635 18.0037 91.6834 17.664C91.7181 17.3217 91.8377 17.0074 92.0423 16.721L92.1167 16.6168L93.1844 17.3794L93.11 17.4835C93.0108 17.6224 92.9717 17.778 92.9928 17.9504C93.0287 18.1203 93.1162 18.2548 93.255 18.354L97.7859 21.5903C97.9248 21.6895 98.0761 21.7254 98.2398 21.6982C98.4183 21.6684 98.5572 21.5841 98.6564 21.4452L99.4841 20.2864C99.5833 20.1476 99.6149 19.9932 99.5789 19.8233C99.5578 19.651 99.4779 19.5152 99.339 19.416L94.8081 16.1797C94.5217 15.9751 94.3065 15.7166 94.1627 15.4041C94.0337 15.0891 93.9792 14.7618 93.999 14.422C94.0337 14.0798 94.1534 13.7655 94.358 13.479L95.1856 12.3203C95.3902 12.0338 95.6457 11.823 95.9519 11.6879C96.2731 11.5502 96.6004 11.4957 96.934 11.5242C97.2824 11.5502 97.5999 11.6655 97.8863 11.8701L102.417 15.1064C102.712 15.3172 102.924 15.5801 103.053 15.895C103.197 16.2075 103.252 16.5349 103.217 16.8771C103.197 17.2169 103.085 17.5299 102.88 17.8164L102.806 17.9205L101.725 17.1487L101.8 17.0445C101.899 16.9056 101.931 16.7513 101.895 16.5814C101.873 16.409 101.793 16.2732 101.655 16.174L97.1237 12.9378C96.9848 12.8386 96.8261 12.8038 96.6476 12.8336C96.4839 12.8609 96.3525 12.944 96.2533 13.0828L95.4256 14.2416C95.3264 14.3805 95.2873 14.5361 95.3084 14.7085C95.3444 14.8783 95.4318 15.0129 95.5707 15.1121L100.102 18.3484C100.397 18.5591 100.609 18.822 100.738 19.137C100.882 19.4494 100.936 19.7768 100.901 20.119C100.882 20.4588 100.769 20.7719 100.565 21.0583L99.737 22.2171C99.5324 22.5035 99.2696 22.7156 98.9484 22.8532C98.6421 22.9884 98.3148 23.0429 97.9664 23.0169C97.6328 22.9884 97.3185 22.8687 97.0234 22.6579L92.4925 19.4216ZM99.2971 24.3529L105.533 17.4805L106.505 18.3622L100.269 25.2345L99.2971 24.3529ZM106.694 16.2009L107.576 15.2293L108.548 16.1109L107.666 17.0825L106.694 16.2009ZM101.064 26.0394L108.065 19.9477L113.001 25.6207C113.232 25.8863 113.374 26.1872 113.426 26.5235C113.493 26.8608 113.47 27.1919 113.357 27.5167C113.259 27.8426 113.077 28.121 112.811 28.3521L107.271 33.1729L106.41 32.1831L111.95 27.3623C112.079 27.2503 112.146 27.1075 112.15 26.9339C112.17 26.7614 112.123 26.6107 112.011 26.482L108.356 22.2815C108.244 22.1528 108.098 22.0821 107.917 22.0696C107.745 22.0501 107.594 22.0963 107.465 22.2083L101.925 27.0292L101.064 26.0394ZM108.574 35.29C108.396 34.9866 108.304 34.6629 108.3 34.3189C108.31 33.9788 108.393 33.6575 108.55 33.3552C108.721 33.0566 108.958 32.8181 109.261 32.6397L113.922 29.8976C114.226 29.7191 114.545 29.6304 114.88 29.6315C115.229 29.6363 115.55 29.7196 115.843 29.8813C116.151 30.0468 116.394 30.2812 116.573 30.5846L119.396 35.3838C119.58 35.6964 119.667 36.0228 119.656 36.3629C119.661 36.7069 119.577 37.0281 119.407 37.3267C119.25 37.629 119.02 37.8694 118.717 38.0479L115.821 39.7516L111.692 32.7321L109.926 33.7705C109.779 33.857 109.68 33.9833 109.629 34.1493C109.593 34.3192 109.618 34.4776 109.705 34.6247L113.518 41.1064L112.387 41.7716L108.574 35.29ZM112.822 32.0668L116.278 37.9417L118.044 36.9033C118.191 36.8167 118.282 36.6885 118.319 36.5187C118.369 36.3527 118.352 36.1961 118.265 36.049L115.442 31.2498C115.355 31.1027 115.224 31.0065 115.049 30.9611C114.889 30.9194 114.735 30.9419 114.588 31.0284L112.822 32.0668ZM113.257 44.0349C113.137 43.7039 113.106 43.369 113.165 43.03C113.238 42.6975 113.378 42.3969 113.587 42.1284C113.81 41.8662 114.087 41.6752 114.418 41.5553L114.538 41.5117L114.985 42.7453L114.865 42.7889C114.704 42.847 114.584 42.953 114.503 43.1069C114.437 43.2672 114.432 43.4276 114.49 43.5881L116.387 48.8233C116.445 48.9837 116.549 49.0991 116.699 49.1695C116.863 49.2463 117.025 49.2556 117.186 49.1975L118.525 48.7125C118.685 48.6544 118.799 48.5452 118.865 48.3849C118.946 48.231 118.957 48.0738 118.899 47.9133L117.003 42.6781C116.883 42.3472 116.852 42.0122 116.911 41.6733C116.983 41.3408 117.124 41.0402 117.333 40.7716C117.556 40.5095 117.833 40.3184 118.164 40.1986L119.503 39.7136C119.833 39.5937 120.163 39.565 120.492 39.6274C120.835 39.6962 121.135 39.8369 121.394 40.0496C121.666 40.2686 121.862 40.5436 121.982 40.8746L123.878 46.1098C124.002 46.4508 124.027 46.7875 123.955 47.1201C123.896 47.459 123.755 47.7596 123.533 48.0217C123.324 48.2903 123.054 48.4845 122.723 48.6044L122.602 48.648L122.15 47.3994L122.271 47.3558C122.431 47.2977 122.545 47.1884 122.611 47.0281C122.692 46.8742 122.703 46.717 122.645 46.5566L120.749 41.3214C120.69 41.1609 120.579 41.0423 120.415 40.9656C120.265 40.8952 120.11 40.8891 119.949 40.9472L118.61 41.4321C118.45 41.4903 118.33 41.5963 118.249 41.7502C118.182 41.9105 118.178 42.0709 118.236 42.2313L120.132 47.4665C120.256 47.8075 120.281 48.1443 120.209 48.4768C120.15 48.8157 120.01 49.1163 119.787 49.3785C119.578 49.647 119.308 49.8413 118.977 49.9611L117.638 50.4461C117.307 50.566 116.97 50.5915 116.628 50.5227C116.299 50.4603 115.998 50.3196 115.726 50.1005C115.468 49.8879 115.276 49.6111 115.153 49.2701L113.257 44.0349ZM116.232 53.4245C116.175 53.0771 116.207 52.7423 116.327 52.42C116.46 52.1066 116.654 51.8373 116.909 51.612C117.176 51.3955 117.484 51.2589 117.831 51.2023L117.957 51.1818L118.168 52.4767L118.042 52.4973C117.874 52.5247 117.736 52.6066 117.628 52.743C117.533 52.8882 117.499 53.045 117.527 53.2135L118.422 58.709C118.449 58.8775 118.53 59.0101 118.665 59.1071C118.812 59.2128 118.97 59.252 119.138 59.2245L120.544 58.9955C120.712 58.9681 120.844 58.8817 120.939 58.7365C121.047 58.6002 121.087 58.4477 121.059 58.2793L120.164 52.7838C120.107 52.4364 120.139 52.1015 120.259 51.7793C120.392 51.4659 120.586 51.1965 120.841 50.9712C121.108 50.7548 121.416 50.6182 121.763 50.5616L123.169 50.3326C123.516 50.276 123.846 50.3087 124.157 50.4309C124.481 50.5618 124.751 50.7557 124.965 51.0125C125.192 51.2781 125.334 51.5846 125.391 51.932L126.286 57.4276C126.345 57.7855 126.307 58.1212 126.175 58.4346C126.054 58.7568 125.86 59.0262 125.593 59.2427C125.338 59.4679 125.037 59.6089 124.689 59.6655L124.563 59.6861L124.349 58.3754L124.476 58.3548C124.644 58.3273 124.776 58.241 124.871 58.0958C124.979 57.9594 125.019 57.807 124.991 57.6386L124.096 52.143C124.068 51.9746 123.981 51.8375 123.834 51.7318C123.7 51.6348 123.548 51.6001 123.38 51.6275L121.974 51.8565C121.806 51.884 121.668 51.9659 121.56 52.1023C121.465 52.2475 121.431 52.4043 121.459 52.5728L122.354 58.0683C122.412 58.4262 122.375 58.7619 122.243 59.0753C122.122 59.3976 121.928 59.6669 121.661 59.8834C121.406 60.1087 121.105 60.2496 120.757 60.3062L119.352 60.5352C119.004 60.5919 118.669 60.5547 118.345 60.4238C118.033 60.3016 117.764 60.1078 117.537 59.8421C117.322 59.5853 117.185 59.278 117.127 58.92L116.232 53.4245ZM117.589 65.2745L129.038 66.558L127.968 76.0982C127.929 76.448 127.808 76.7565 127.607 77.0237C127.404 77.3015 127.145 77.5085 126.829 77.6449C126.524 77.7824 126.196 77.8315 125.846 77.7923L118.214 76.9367C117.864 76.8974 117.55 76.7764 117.273 76.5735C117.005 76.3718 116.804 76.1131 116.667 75.7972C116.53 75.492 116.481 75.1645 116.52 74.8147L117.589 65.2745ZM118.663 67.3269L117.808 74.9591C117.789 75.1287 117.831 75.2783 117.935 75.408C118.048 75.5495 118.189 75.6297 118.358 75.6487L125.991 76.5044C126.16 76.5234 126.31 76.4758 126.441 76.3617C126.582 76.2594 126.661 76.1234 126.68 75.9538L127.536 68.3216C127.555 68.152 127.508 67.9965 127.395 67.855C127.291 67.7253 127.155 67.651 126.985 67.632L119.353 66.7763C119.183 66.7573 119.029 66.799 118.888 66.9013C118.757 67.0154 118.682 67.1573 118.663 67.3269ZM115.605 79.0664C115.714 78.7316 115.895 78.4485 116.15 78.2171C116.411 77.9991 116.707 77.8484 117.037 77.7648C117.374 77.6947 117.709 77.7139 118.044 77.8226L123.188 79.492C123.523 79.6007 123.801 79.7807 124.022 80.0319C124.25 80.2966 124.401 80.5922 124.475 80.9188C124.555 81.2589 124.541 81.5963 124.432 81.9311L122.713 87.2272C122.601 87.5721 122.414 87.8536 122.153 88.0716C121.899 88.3029 121.603 88.4537 121.266 88.5238C120.936 88.6074 120.604 88.5949 120.269 88.4862L117.073 87.449L119.587 79.7027L117.639 79.0705C117.477 79.0178 117.317 79.0275 117.159 79.0996C117.008 79.1851 116.906 79.3091 116.853 79.4714L114.532 86.6241L113.284 86.2191L115.605 79.0664ZM120.835 80.1077L118.731 86.5908L120.679 87.2231C120.841 87.2758 120.998 87.2593 121.149 87.1738C121.307 87.1017 121.412 86.9845 121.465 86.8222L123.184 81.5261C123.237 81.3638 123.222 81.202 123.14 81.0407C123.064 80.8929 122.945 80.7926 122.783 80.74L120.835 80.1077ZM112.167 88.3758C112.335 88.0664 112.565 87.8212 112.857 87.6402C113.154 87.4736 113.472 87.3793 113.812 87.3573C114.156 87.3498 114.482 87.4301 114.792 87.598L114.904 87.6591L114.278 88.8121L114.166 88.751C114.016 88.6696 113.857 88.6499 113.688 88.692C113.524 88.7485 113.401 88.8518 113.32 89.0017L110.663 93.8952C110.582 94.0452 110.565 94.1997 110.612 94.3588C110.663 94.5324 110.764 94.6599 110.914 94.7413L112.165 95.4207C112.315 95.5021 112.473 95.5146 112.637 95.4581C112.805 95.416 112.93 95.32 113.012 95.17L115.668 90.2765C115.836 89.9672 116.066 89.722 116.359 89.5409C116.655 89.3743 116.974 89.28 117.313 89.2581C117.657 89.2506 117.984 89.3308 118.293 89.4987L119.545 90.1781C119.854 90.3461 120.095 90.5737 120.266 90.8611C120.442 91.163 120.536 91.4812 120.549 91.8157C120.566 92.1647 120.49 92.4939 120.322 92.8032L117.666 97.6967C117.493 98.0154 117.258 98.2581 116.961 98.4247C116.669 98.6057 116.351 98.7 116.007 98.7075C115.667 98.7295 115.343 98.6565 115.033 98.4885L114.921 98.4275L115.554 97.2604L115.667 97.3214C115.817 97.4029 115.974 97.4153 116.138 97.3588C116.307 97.3167 116.431 97.2207 116.513 97.0707L119.169 92.1773C119.251 92.0273 119.266 91.8655 119.214 91.692C119.167 91.5329 119.069 91.4126 118.919 91.3312L117.667 90.6518C117.517 90.5704 117.358 90.5507 117.19 90.5927C117.025 90.6492 116.903 90.7525 116.821 90.9025L114.165 95.7959C113.992 96.1147 113.757 96.3573 113.46 96.5239C113.167 96.705 112.849 96.7993 112.505 96.8068C112.166 96.8287 111.841 96.7557 111.532 96.5878L110.28 95.9084C109.971 95.7405 109.728 95.5056 109.552 95.2037C109.381 94.9163 109.286 94.5981 109.27 94.2491C109.257 93.9146 109.337 93.588 109.51 93.2692L112.167 88.3758ZM107.194 96.6937C107.415 96.4197 107.685 96.2201 108.006 96.0948C108.328 95.9845 108.658 95.9492 108.996 95.9889C109.335 96.0436 109.642 96.1814 109.916 96.4024L114.125 99.7981C114.399 100.019 114.595 100.286 114.712 100.6C114.83 100.929 114.865 101.259 114.817 101.59C114.771 101.936 114.637 102.246 114.416 102.52L110.92 106.854C110.693 107.136 110.418 107.333 110.096 107.443C109.775 107.568 109.445 107.603 109.106 107.549C108.768 107.509 108.462 107.379 108.188 107.158L105.573 105.048L110.686 98.7095L109.092 97.4236C108.959 97.3164 108.806 97.2683 108.633 97.2793C108.461 97.3052 108.322 97.3846 108.215 97.5174L103.493 103.37L102.472 102.547L107.194 96.6937ZM111.707 99.5333L107.428 104.838L109.022 106.124C109.155 106.231 109.307 106.272 109.478 106.246C109.652 106.235 109.792 106.163 109.899 106.03L113.395 101.697C113.502 101.564 113.546 101.407 113.527 101.227C113.509 101.062 113.434 100.926 113.301 100.819L111.707 99.5333ZM102.035 102.994L106.95 108.451C107.186 108.712 107.337 109.007 107.403 109.335C107.468 109.679 107.451 110.01 107.351 110.33C107.25 110.664 107.069 110.949 106.808 111.185L102.932 114.676L102.054 113.701L105.93 110.21C106.056 110.096 106.124 109.948 106.134 109.768C106.143 109.602 106.09 109.456 105.975 109.329L101.06 103.872L102.035 102.994ZM92.7393 110.246L102.031 115.345L100.734 116.167L92.7757 111.739L93.3813 120.826L92.0838 121.648L91.4553 111.06L92.7393 110.246ZM85.5332 114.311C85.8614 114.183 86.1955 114.145 86.5357 114.196C86.8698 114.261 87.1734 114.395 87.4466 114.598C87.7137 114.815 87.9109 115.088 88.0382 115.416L89.9935 120.458C90.1208 120.786 90.1569 121.115 90.1019 121.445C90.0409 121.789 89.9069 122.093 89.7001 122.356C89.4872 122.633 89.2167 122.836 88.8885 122.963L83.6972 124.976C83.359 125.107 83.0229 125.14 82.6888 125.075C82.3487 125.024 82.045 124.89 81.7779 124.673C81.5047 124.471 81.3045 124.205 81.1772 123.877L79.9624 120.744L87.5554 117.8L86.815 115.89C86.7532 115.731 86.6446 115.613 86.4889 115.536C86.3271 115.473 86.1667 115.472 86.0076 115.534L78.9963 118.253L78.5219 117.03L85.5332 114.311ZM88.0298 119.023L81.6749 121.487L82.4154 123.397C82.4771 123.556 82.5888 123.667 82.7506 123.73C82.9063 123.807 83.0637 123.814 83.2228 123.753L88.4141 121.74C88.5732 121.678 88.6893 121.564 88.7624 121.399C88.8293 121.247 88.832 121.091 88.7703 120.932L88.0298 119.023ZM76.1463 117.525C76.4922 117.46 76.8278 117.483 77.1528 117.596C77.4694 117.721 77.7435 117.908 77.975 118.157C78.198 118.419 78.342 118.723 78.4072 119.069L78.4309 119.195L77.1415 119.438L77.1179 119.312C77.0863 119.144 77.001 119.008 76.862 118.904C76.7145 118.813 76.5569 118.783 76.3891 118.814L70.9173 119.845C70.7496 119.876 70.619 119.961 70.5254 120.098C70.4233 120.247 70.388 120.406 70.4196 120.573L70.6831 121.973C70.7147 122.141 70.8043 122.27 70.9518 122.362C71.0908 122.466 71.2441 122.502 71.4119 122.471L76.8837 121.44C77.2296 121.375 77.5651 121.399 77.8902 121.511C78.2068 121.636 78.4808 121.823 78.7123 122.073C78.9353 122.334 79.0794 122.638 79.1445 122.984L79.4081 124.384C79.4732 124.73 79.4486 125.06 79.3342 125.374C79.2112 125.702 79.0241 125.976 78.7726 126.197C78.5127 126.43 78.2097 126.579 77.8638 126.645L72.392 127.675C72.0356 127.742 71.6991 127.713 71.3825 127.588C71.0574 127.476 70.7834 127.289 70.5604 127.027C70.3289 126.777 70.1806 126.48 70.1154 126.134L70.0917 126.008L71.3968 125.762L71.4205 125.888C71.4521 126.056 71.5416 126.185 71.6891 126.277C71.8281 126.381 71.9815 126.417 72.1492 126.386L77.621 125.355C77.7887 125.324 77.9236 125.233 78.0257 125.084C78.1193 124.947 78.1503 124.794 78.1187 124.626L77.8552 123.227C77.8236 123.059 77.7383 122.923 77.5993 122.819C77.4518 122.728 77.2942 122.698 77.1265 122.729L71.6547 123.76C71.2983 123.827 70.9618 123.798 70.6452 123.673C70.3201 123.561 70.0461 123.374 69.8231 123.112C69.5916 122.862 69.4432 122.564 69.3781 122.219L69.1145 120.819C69.0494 120.473 69.0783 120.137 69.2012 119.81C69.3156 119.495 69.5028 119.221 69.7628 118.988C70.0142 118.767 70.3181 118.622 70.6745 118.555L76.1463 117.525ZM67.877 119.019L67.9608 120.328L66.6515 120.412L66.5677 119.102L67.877 119.019Z" fill="#ECECEC"/>
</svg>
